<svg xmlns="http://www.w3.org/2000/svg" viewBox="0 0 300 300"><style>.st0{fill:#c97f4c}.st1{fill:#fac8b6}.st2{fill:#815b24}.st3{fill:#f04f4f}.st4{fill:#c03e3e}.st5{fill:#329fd9}.st6{fill:#a6c3c5}.st7{fill:#d6e9ea}.st8{fill:#fbc410}.st9{fill:#f7901e}.st10{fill:#f6a71c}.st11{fill:#8ea7a7}.st12{fill:#becece}.st13{fill:#96c93d}.st14{fill:#fff}</style><g id="XMLID_3_"><path id="XMLID_83_" class="st7" d="M155 131h1v8h-1z"/><path id="XMLID_82_" class="st8" d="M91 131h124v23H91z"/><path id="XMLID_81_" class="st8" d="M101 168h104v24H101z"/><path id="XMLID_80_" class="st8" d="M111 206h84v59h-84z"/><path id="XMLID_79_" class="st9" d="M167 206h28v59h-28z"/><path id="XMLID_78_" class="st10" d="M139 206h28v59h-28z"/><path id="XMLID_77_" class="st10" d="M135 168h36v24h-36z"/><path id="XMLID_76_" class="st10" d="M132 131h42v23h-42z"/><path id="XMLID_75_" class="st9" d="M174 131h41v23h-41z"/><path id="XMLID_74_" class="st9" d="M171 168h34v24h-34z"/><path id="XMLID_73_" class="st9" d="M205 168H101l-10-14h124z"/><path id="XMLID_72_" class="st9" d="M195 206h-84l-10-14h104z"/><g id="XMLID_70_"><path id="XMLID_71_" class="st10" d="M217 231h28v28h-28z"/></g><g id="XMLID_68_"><path id="XMLID_69_" class="st10" d="M61 231h28v28H61z"/></g><g id="XMLID_66_"><path id="XMLID_67_" class="st3" d="M90 232H60l15-28z"/></g><g id="XMLID_64_"><path id="XMLID_65_" class="st3" d="M246 232h-30l15-28z"/></g><path id="XMLID_63_" class="st10" d="M61 254h184v24H61z"/><g id="XMLID_60_"><path id="XMLID_52_" class="st3" d="M157 227h-8v-10.3c0-2.2 1.6-3.7 3.8-3.7h.2c2.1 0 4 1.3 4 3.4V227z"/></g><g id="XMLID_57_"><path id="XMLID_53_" class="st9" d="M151 194h4v18h-4z"/></g><g id="XMLID_54_"><path id="XMLID_55_" class="st9" d="M122 194h4v18h-4z"/></g><g id="XMLID_51_"><path id="XMLID_58_" class="st9" d="M151 160h4v14h-4z"/></g><g id="XMLID_48_"><path id="XMLID_59_" class="st9" d="M116 160h4v14h-4z"/></g><g id="XMLID_45_"><path id="XMLID_61_" class="st3" d="M79 255h-8v-10.3c0-2.2 1.6-3.7 3.8-3.7h.2c2.1 0 4 1.3 4 3.4V255z"/></g><g id="XMLID_42_"><path id="XMLID_62_" class="st3" d="M235 255h-8v-10.3c0-2.2 1.6-3.7 3.8-3.7h.2c2.1 0 4 1.3 4 3.4V255z"/></g><g id="XMLID_39_"><g id="XMLID_40_"><path id="XMLID_41_" class="st10" d="M173.9 282h-41.7c-8.5 0-15.2-6.8-15.2-15.1v-1.5c0-19.9 16.1-36 35.9-36 19.9 0 36.1 16.2 36.1 36.2v1.4c0 8.2-6.6 15-15.1 15z"/></g></g><g id="XMLID_36_"><path id="XMLID_56_" class="st3" d="M173.9 279h-41.7c-.7 0-1.2-.5-1.2-1.2v-12.5c0-12.2 9.8-22.4 22-22.4h-.1c12.3 0 22.1 10.3 22.1 22.6v12.3c0 .7-.4 1.2-1.1 1.2z"/></g><g id="XMLID_13_"><path id="XMLID_35_" class="st11" d="M118 68h3v63h-3z"/><path id="XMLID_33_" class="st12" d="M118 68h1v63h-1z"/><path id="XMLID_31_" class="st13" d="M73 68h48v27H73z"/><g id="XMLID_14_"><path id="XMLID_29_" class="st14" d="M89 74h5v3.9h4.1c1.5 0 2.5 1.1 2.5 2.6 0 1.1-.1 2.2 0 3.4 0 1.5-1.1 2.8-2.6 2.8-2.5 0-5.4.2-7.9.2h-1C89 83 89 78 89 74z"/><path id="XMLID_27_" class="st14" d="M100 89v-2h7v2h-7z"/></g></g><path id="XMLID_12_" class="st9" d="M179 124h14v7h-14z"/><path id="XMLID_11_" class="st9" d="M201 124h14v7h-14z"/><path id="XMLID_10_" class="st10" d="M135 124h14v7h-14z"/><path id="XMLID_9_" class="st10" d="M157 124h14v7h-14z"/><path id="XMLID_8_" class="st8" d="M91 124h14v7H91z"/><path id="XMLID_7_" class="st8" d="M113 124h14v7h-14z"/><path id="XMLID_6_" class="st10" d="M97 247h14v7H97z"/><path id="XMLID_5_" class="st10" d="M195 247h14v7h-14z"/><path id="XMLID_4_" class="st13" d="M52 277h200v12H52z"/></g></svg>
