<?xml version="1.0" encoding="iso-8859-1"?>
<!-- Generator: Adobe Illustrator 19.0.0, SVG Export Plug-In . SVG Version: 6.00 Build 0)  -->
<svg version="1.1" id="Capa_1" xmlns="http://www.w3.org/2000/svg" xmlns:xlink="http://www.w3.org/1999/xlink" x="0px" y="0px"
	 viewBox="0 0 512 512" style="enable-background:new 0 0 512 512;" xml:space="preserve">
<polygon style="fill:#AD7ACF;" points="379,133 379,256 253,256 253,379 379,379 379,502 502,502 502,379 502,256 502,133 "/>
<polygon style="fill:#FEC761;" points="253,379 130,379 10,379 10,502 130,502 253,502 379,502 379,379 "/>
<path style="fill:#FD3C65;" d="M130,10H10v123v123h120V133h123V10H130z"/>
<path d="M70,143c5.52,0,10-4.48,10-10s-4.48-10-10-10s-10,4.48-10,10C60,138.52,64.48,143,70,143z"/>
<path d="M502,123H379c-5.522,0-10,4.477-10,10v113H253c-5.522,0-10,4.477-10,10v113H130H10c-5.523,0-10,4.477-10,10v123
	c0,5.523,4.477,10,10,10c8.589,0,477.902,0,492,0c5.522,0,10-4.477,10-10c0-10.155,0-352.898,0-369C512,127.477,507.522,123,502,123
	z M263,389h106v103H263V389z M389,266h103v103H389V266z M389,143h103v103H389V143z M263,266h106v103H263V266z M243,492H140V389h103
	V492z M20,389h100v103H20V389z M389,492V389h103v103H389z"/>
<path d="M10,266h120c5.523,0,10-4.477,10-10V143h113c5.522,0,10-4.477,10-10V10c0-5.523-4.478-10-10-10C245.732,0,15.315,0,10,0
	C4.477,0,0,4.477,0,10c0,6.94,0,239.064,0,246C0,261.523,4.477,266,10,266z M243,123H140V20h103V123z M20,20h100v103h-13.02
	c-5.523,0-10,4.477-10,10c0,5.523,4.477,10,10,10H120v103H20V143h12.63c5.523,0,10-4.477,10-10s-4.477-10-10-10H20V20z"/>
<g>
</g>
<g>
</g>
<g>
</g>
<g>
</g>
<g>
</g>
<g>
</g>
<g>
</g>
<g>
</g>
<g>
</g>
<g>
</g>
<g>
</g>
<g>
</g>
<g>
</g>
<g>
</g>
<g>
</g>
</svg>
