<svg id="Layer_1" data-name="Layer 1" xmlns="http://www.w3.org/2000/svg" viewBox="0 0 72 72"><defs><style>.cls-1{fill:#2e5cff;}.cls-2{fill:#fff;}.cls-3{fill:#1545cc;}</style></defs><title>logo</title><polygon class="cls-1" points="16.26 54 4.84 65.13 3.15 65.17 3.13 18.5 15.48 6.81 16.28 6.81 16.26 54"/><polygon class="cls-2" points="28.16 53.15 15.03 65.16 19.5 65.16 32.13 53.15 28.16 53.15"/><polygon class="cls-2" points="52.16 53.16 39.52 65.17 44.05 65.17 56.47 53.16 52.16 53.16"/><polygon class="cls-3" points="15.47 6.81 15.48 53.2 3.17 65.17 15.88 65.18 29 53.2 31.36 53.2 18.75 65.18 40.37 65.19 53 53.21 55.7 53.21 43.3 65.19 57.17 65.19 68.87 53.22 68.87 6.83 15.47 6.81"/><path class="cls-2" d="M29,8.39v5.84H17.38V8.39Zm0,8.08V53.2H17.38V16.47Z"/><path class="cls-2" d="M53,8.4v9L44.25,44.24H53v9H31.35V46.7l9-29.33h-8v-9Z"/><path class="cls-2" d="M67.3,8.41v5.84H55.7V8.4Zm0,8.08V53.22H55.7V16.49Z"/></svg>