<?xml version="1.0" encoding="UTF-8"?>
<svg width="80px" height="73px" viewBox="0 0 80 73" version="1.1" xmlns="http://www.w3.org/2000/svg" xmlns:xlink="http://www.w3.org/1999/xlink">
    <g id="logo" stroke="none" stroke-width="1" fill="none" fill-rule="evenodd">
        <g id="logo-black" transform="translate(-467.000000, -993.000000)" fill="#f15733">
            <g id="bigl" transform="translate(467.000000, 993.470015)">
                <path d="M49.7472043,22.9010036 C50.9371685,23.3963441 52.1414695,23.647957 53.3145878,23.647957 C57.1676344,23.647957 60.4873477,20.9863082 62.4153047,16.3511828 C63.6425448,13.3999283 62.2353763,12.0845161 60.8353763,11.501362 L56.702043,9.78129032 C56.3529391,9.63792115 55.985914,9.56301075 55.6163799,9.56301075 C54.4411111,9.56301075 53.4034767,10.3042294 52.9063441,11.4938351 C52.2185305,13.1515412 52.8246237,14.8128315 54.3479211,15.4472401 L55.8314337,16.064086 C55.2188889,17.047957 54.43681,17.5440143 53.4959498,17.5440143 C53.0583154,17.5440143 52.5873477,17.4389964 52.0973835,17.2375627 C49.411362,16.1221505 49.6715771,12.8031541 50.7124373,10.2967025 C51.7837634,7.72322581 53.5525806,6.12071685 55.3314337,6.12071685 C55.7507885,6.12071685 56.1798208,6.210681 56.6084946,6.38845878 C58.3411111,7.10960573 58.8099283,7.75154122 59.2228315,8.32179211 C59.5260573,8.7372043 59.8712186,9.21247312 60.5565233,9.49921147 C60.8640502,9.62358423 61.1808961,9.68917563 61.5052688,9.68917563 C62.6350179,9.68917563 63.6618996,8.90602151 64.1812545,7.64759857 C64.9877061,5.69921147 63.2196057,2.49956989 58.9618996,0.72609319 C57.8013262,0.245806452 56.5955914,-7.16845878e-05 55.3851971,-7.16845878e-05 C51.0618996,-7.16845878e-05 47.104552,3.05010753 45.0651254,7.95297491 C42.3945161,14.3762724 44.364767,20.6615771 49.7472043,22.9010036" id="Fill-33"></path>
                <path d="M29.2001792,20.7504659 C29.8213262,22.2260932 31.0636201,23.1117563 32.5259857,23.1117563 C33.031362,23.1117563 33.5396057,23.0053047 34.0353047,22.7963441 C34.9722222,22.4067384 35.6840502,21.7149821 36.0424731,20.847957 C36.4155914,19.9447312 36.3937276,18.9325448 35.9668459,17.9149821 L29.6403226,2.81032258 C29.0206093,1.33469534 27.7765233,0.450824373 26.3145161,0.450824373 C25.8091398,0.450824373 25.3037634,0.557992832 24.8051971,0.763010753 C23.8700717,1.15405018 23.1532258,1.85010753 22.7958781,2.71283154 C22.4238351,3.61498208 22.45,4.63003584 22.8732975,5.64473118 L29.2001792,20.7504659 Z" id="Fill-36"></path>
                <path d="M60.7778136,33.7476703 L65.5767384,39.3053763 C66.2935842,40.1362007 67.2684946,40.5953405 68.3201075,40.5953405 C69.1201075,40.5953405 69.8986022,40.3218638 70.5118638,39.8265233 C71.2505735,39.2591398 71.7469892,38.3763441 71.8448387,37.4336918 C71.9441219,36.4673835 71.6150896,35.4928315 70.9201075,34.6903226 L68.4921505,31.8724014 L78.5115054,23.2261649 C80.199319,21.7713262 80.38319,19.5964158 78.962043,17.9426523 C78.2172401,17.0824373 77.2380287,16.6107527 76.1928674,16.6107527 C75.2982437,16.6107527 74.4251254,16.9591398 73.6663441,17.6154122 L61.2631183,28.3150538 C59.5175986,29.8225806 59.3161649,32.0573477 60.7778136,33.7476703" id="Fill-38"></path>
                <path d="M7.97903226,23.4164158 C8.6202509,22.7321864 9.40985663,22.5999283 10.0335125,23.1830824 C10.2897849,23.4275269 10.6008961,23.8142652 10.6159498,24.2834409 C10.6302867,24.7562007 10.3507168,25.1565591 10.1091398,25.4142652 L9.09408602,26.498853 L6.96146953,24.5042294 L7.97903226,23.4164158 Z M14.6084229,28.5207168 C15.5969534,27.4558423 16.5639785,27.2156989 17.3227599,27.9239427 C18.5155914,29.0436559 17.7137993,30.1587097 17.3145161,30.5891756 L15.5116487,32.5139068 L13.0385305,30.1895341 L14.6084229,28.5207168 Z M13.2937276,38.3977778 C13.8879928,38.9554839 14.594086,39.2490323 15.333871,39.2490323 C16.1535842,39.2490323 16.9435484,38.8830824 17.5682796,38.2192832 L21.6145161,33.9020789 C24.738172,30.5637276 24.6793907,26.6153405 21.4575269,23.5977778 C19.8259857,22.0676703 17.3281362,21.6336201 15.2664875,22.4712545 C15.3284946,20.9522581 14.7209677,19.6088889 13.4263441,18.3952688 C10.9786738,16.1027957 7.2234767,16.3235842 4.87903226,18.8217921 L1.11021505,22.8508244 C0.497311828,23.5002867 0.189426523,24.2558423 0.214516129,25.0346953 C0.239605735,25.7877419 0.585483871,26.498853 1.21236559,27.0812903 L13.2937276,38.3977778 Z" id="Fill-40"></path>
                <path d="M29.6275627,71.8064875 C30.0927957,71.7523656 30.5304301,71.6882079 30.7816846,71.617957 C34.3164516,70.6279928 37.6010394,68.971362 41.5404659,68.971362 C45.4798925,68.971362 48.7644803,70.6279928 52.2992473,71.617957 C52.4884946,71.6706452 52.7834767,71.7204659 53.1164516,71.7649104 C57.3289964,72.5749462 61.8558781,71.3494982 65.1175269,68.087491 C70.3433333,62.862043 70.3433333,54.3892832 65.1175269,49.1638351 L59.9282796,43.9745878 C58.6021147,42.5946595 57.2300717,41.101828 56.7164516,40.3269176 C56.1239785,39.4315771 55.0207527,37.6251254 54.0806093,36.0670609 C52.184552,30.9824731 47.2863441,27.3602509 41.5404659,27.3602509 C36.0329391,27.3602509 31.3046237,30.6882079 29.2519355,35.4419713 C28.2479928,37.1115054 26.9135842,39.308638 26.2393907,40.3269176 C25.5476344,41.371362 23.2960215,43.7193907 21.6996057,45.3376703 L17.8734409,49.1638351 C12.6479928,54.3892832 12.6479928,62.862043 17.8734409,68.087491 C21.0716487,71.2856989 25.4856272,72.5229749 29.6275627,71.8064875" id="Fill-42"></path>
            </g>
        </g>
    </g>
</svg>
