<?xml version="1.0" standalone="no"?>
<!DOCTYPE svg PUBLIC "-//W3C//DTD SVG 20010904//EN"
 "http://www.w3.org/TR/2001/REC-SVG-20010904/DTD/svg10.dtd">
<svg version="1.0" xmlns="http://www.w3.org/2000/svg"
 width="700.000000pt" height="700.000000pt" viewBox="0 0 700.000000 700.000000"
 preserveAspectRatio="xMidYMid meet">
<metadata>
Created by potrace 1.11, written by Peter Selinger 2001-2013
</metadata>
<g transform="translate(0.000000,700.000000) scale(0.100000,-0.100000)"
fill="#000000" stroke="none">
<path d="M75 6984 c-16 -9 -39 -28 -50 -42 -20 -27 -20 -45 -23 -1747 -2
-1622 -1 -1722 15 -1754 10 -19 31 -44 46 -55 28 -21 36 -21 880 -22 813 -2
854 -1 892 17 23 10 49 33 60 51 18 31 19 62 19 823 l1 790 790 0 c764 0 791
1 823 20 17 11 40 35 50 55 16 33 17 95 17 910 l0 875 -24 34 c-47 65 75 61
-1778 60 -1488 0 -1692 -2 -1718 -15z"/>
<path d="M5118 5299 c-76 -39 -72 10 -73 -871 0 -518 -3 -788 -10 -789 -5 0
-370 -2 -810 -3 -440 -1 -809 -6 -820 -11 -26 -11 -64 -52 -75 -79 -4 -12 -8
-375 -7 -806 l0 -785 -1609 0 c-1598 0 -1609 0 -1644 -20 -75 -44 -71 14 -68
-970 3 -862 3 -881 23 -907 46 -63 -235 -58 3480 -58 3754 0 3426 -6 3473 65
l22 34 0 2553 c0 2412 -1 2555 -17 2587 -10 19 -31 44 -46 55 -28 21 -35 21
-905 23 -846 1 -878 0 -914 -18z"/>
</g>
</svg>
